#N canvas 543 171 599 419 10;
#X declare -lib iemmatrix;
#X obj 103 347 mtx_print;
#X obj 103 328 mtx_element 4 3;
#X msg 323 314 bang;
#X obj 178 170 list-group 2;
#X msg 80 222 1;
#X obj 107 195 t b l;
#X obj 474 84 metro 100;
#X floatatom 474 137 5 0 0 0 - - -;
#X obj 474 63 tgl 15 0 empty empty empty 17 7 0 10 -262144 -1 -1 0
1;
#X floatatom 523 59 5 100 2000 0 - - -;
#X obj 114 305 mtx_zeros 8 8;
#X obj 13 9 import iemmatrix;
#X msg 233 137 3 \, 2 \, 1 \, 3 \, 3 \, 3 \, 2 \, 4 \, 3 \, 4;
#X msg 232 114 2 \, 2 \, 3 \, 3 \, 4 \, 3 \, 2 \, 4 \, 3 \, 4;
#X obj 474 115 counter 15;
#X obj 266 177 sel 0 1 2 3 4 5 6 7 8 9 10 11 12 13 14 15;
#X msg 231 92 3 \, 2 \, 4 \, 3 \, 2 \, 4 \, 3 \, 4 \, 4 \, 4;
#X msg 232 71 2 \, 3 \, 4 \, 3 \, 3 \, 4 \, 4 \, 4 \, 3 \, 5;
#X msg 231 50 4 \, 3 \, 2 \, 4 \, 4 \, 4 \, 3 \, 5 \, 4 \, 5;
#X msg 235 29 3 \, 3 \, 4 \, 4 \, 5 \, 4 \, 3 \, 5 \, 4 \, 5;
#X msg 235 10 4 \, 3 \, 5 \, 4 \, 3 \, 5 \, 4 \, 5 \, 5 \, 5;
#X msg 235 -12 3 \, 4 \, 5 \, 4 \, 4 \, 5 \, 5 \, 5 \, 4 \, 6;
#X text 6 -51 GliderMatrix8x8 estudo para parser baseado na saida do
script python https://gist.github.com/automata/6206894;
#X text 430 351 copyleft Glerm Soares 2013;
#X connect 1 0 0 0;
#X connect 2 0 10 0;
#X connect 3 0 5 0;
#X connect 4 0 1 0;
#X connect 5 0 4 0;
#X connect 5 1 1 1;
#X connect 6 0 14 0;
#X connect 8 0 6 0;
#X connect 9 0 6 1;
#X connect 10 0 1 0;
#X connect 12 0 3 0;
#X connect 13 0 3 0;
#X connect 14 0 7 0;
#X connect 14 0 15 0;
#X connect 15 0 12 0;
#X connect 15 1 2 0;
#X connect 15 2 13 0;
#X connect 15 3 2 0;
#X connect 15 4 16 0;
#X connect 15 5 2 0;
#X connect 15 6 17 0;
#X connect 15 7 2 0;
#X connect 15 8 18 0;
#X connect 15 9 2 0;
#X connect 15 10 19 0;
#X connect 15 11 2 0;
#X connect 15 12 20 0;
#X connect 15 13 2 0;
#X connect 15 14 21 0;
#X connect 15 15 2 0;
#X connect 16 0 3 0;
#X connect 17 0 3 0;
#X connect 18 0 3 0;
#X connect 19 0 3 0;
#X connect 20 0 3 0;
#X connect 21 0 3 0;
