#N canvas 12 88 1265 708 10;
#X declare -lib iemmatrix;
#X declare -lib iemmatrix;
#X obj 103 347 mtx_print;
#X obj 103 328 mtx_element 4 3;
#X msg 325 334 bang;
#X obj 178 263 list-group 2;
#X msg 80 222 1;
#X obj 107 195 t b l;
#X obj 477 91 metro 100;
#X floatatom 474 137 5 0 0 0 - - tempo;
#X obj 477 -14 tgl 70 0 empty empty empty 17 7 0 10 -258113 -1 -1 0
1;
#X floatatom 523 59 5 100 2000 0 - - -;
#X obj 114 305 mtx_zeros 8 8;
#X obj 10 -11 import iemmatrix;
#X msg 233 230 3 \, 2 \, 1 \, 3 \, 3 \, 3 \, 2 \, 4 \, 3 \, 4;
#X msg 232 207 2 \, 2 \, 3 \, 3 \, 4 \, 3 \, 2 \, 4 \, 3 \, 4;
#X obj 474 115 counter 15;
#X obj 266 270 sel 0 1 2 3 4 5 6 7 8 9 10 11 12 13 14 15;
#X msg 231 185 3 \, 2 \, 4 \, 3 \, 2 \, 4 \, 3 \, 4 \, 4 \, 4;
#X msg 232 164 2 \, 3 \, 4 \, 3 \, 3 \, 4 \, 4 \, 4 \, 3 \, 5;
#X msg 231 143 4 \, 3 \, 2 \, 4 \, 4 \, 4 \, 3 \, 5 \, 4 \, 5;
#X msg 235 122 3 \, 3 \, 4 \, 4 \, 5 \, 4 \, 3 \, 5 \, 4 \, 5;
#X msg 235 103 4 \, 3 \, 5 \, 4 \, 3 \, 5 \, 4 \, 5 \, 5 \, 5;
#X msg 235 81 3 \, 4 \, 5 \, 4 \, 4 \, 5 \, 5 \, 5 \, 4 \, 6;
#X obj 197 349 route matrix;
#X obj 198 368 route 8;
#X obj 198 388 route 8;
#X obj 567 353 seq.8x8_;
#X msg 11 468 2 \$2 \$10 \$18 \$26 \$34 \$42 \$50 \$58;
#X msg 12 448 1 \$1 \$9 \$17 \$25 \$33 \$41 \$49 \$57;
#X msg 11 488 3 \$3 \$11 \$19 \$27 \$35 \$43 \$51 \$59;
#X obj 274 594 s gollytrix;
#X msg 13 510 4 \$3 \$12 \$20 \$28 \$36 \$44 \$52 \$60;
#X obj 853 134 r gollytrix;
#X msg 212 448 5 \$5 \$13 \$21 \$29 \$37 \$45 \$53 \$61;
#X text 563 312 Depende de pdmtl abstractions;
#X msg 212 468 6 \$6 \$14 \$22 \$30 \$38 \$46 \$54 \$62;
#X msg 211 489 7 \$7 \$15 \$23 \$31 \$39 \$47 \$55 \$63;
#X msg 214 510 8 \$8 \$16 \$24 \$32 \$40 \$48 \$56 \$64;
#X text 564 328 https://gitorious.org/pdmtl;
#X text 562 295 Objeto sequenciador seq_8x8;
#X text 7 -46 GliderMatrix8x8 estudo para parser baseado na saida do
;
#X text 8 -33 script python https://gist.github.com/automata/6206894
;
#X obj 627 119 dumpOSC 9000;
#X obj 630 142 print;
#X obj 723 176 OSCroute /golly;
#N canvas 712 386 450 300 MIDIsom 0;
#X msg 776 518 60;
#X obj 1143 339 sel 1;
#X msg 1142 361 30;
#X obj 777 498 sel 1;
#X obj 818 496 sel 1;
#X msg 817 516 63;
#X obj 780 421 unpack f f f f f f f f;
#X obj 876 611 noteout;
#X obj 877 587 makenote 127 1000;
#X obj 859 496 sel 1;
#X msg 858 516 66;
#X obj 900 497 sel 1;
#X msg 899 517 69;
#X obj 949 428 unpack f f f f f f f f;
#X obj 946 505 sel 1;
#X obj 987 503 sel 1;
#X obj 1028 503 sel 1;
#X obj 1069 504 sel 1;
#X msg 945 525 72;
#X msg 986 523 75;
#X msg 1027 523 78;
#X msg 1068 524 81;
#X obj 962 290 unpack f f f f f f f f;
#X obj 959 367 sel 1;
#X obj 1000 365 sel 1;
#X obj 1041 365 sel 1;
#X obj 1082 366 sel 1;
#X msg 958 387 48;
#X msg 999 385 51;
#X msg 1040 385 54;
#X msg 1081 386 57;
#X obj 813 312 route 1 2 3 4 5 6;
#X floatatom 996 574 5 0 0 0 - - -;
#X obj 1023 263 unpack f f f f f f f f;
#X obj 1020 340 sel 1;
#X obj 1061 338 sel 1;
#X obj 1102 338 sel 1;
#X msg 1019 360 36;
#X msg 1060 358 24;
#X msg 1101 358 27;
#X obj 813 273 inlet;
#X connect 0 0 8 0;
#X connect 1 0 2 0;
#X connect 2 0 8 0;
#X connect 3 0 0 0;
#X connect 4 0 5 0;
#X connect 5 0 8 0;
#X connect 6 1 3 0;
#X connect 6 2 4 0;
#X connect 6 3 9 0;
#X connect 6 4 11 0;
#X connect 8 0 7 0;
#X connect 8 1 7 1;
#X connect 9 0 10 0;
#X connect 10 0 8 0;
#X connect 11 0 12 0;
#X connect 12 0 8 0;
#X connect 13 1 14 0;
#X connect 13 2 15 0;
#X connect 13 3 16 0;
#X connect 13 4 17 0;
#X connect 14 0 18 0;
#X connect 15 0 19 0;
#X connect 16 0 20 0;
#X connect 17 0 21 0;
#X connect 18 0 8 0;
#X connect 19 0 8 0;
#X connect 20 0 8 0;
#X connect 21 0 8 0;
#X connect 22 1 23 0;
#X connect 22 2 24 0;
#X connect 22 3 25 0;
#X connect 22 4 26 0;
#X connect 23 0 27 0;
#X connect 24 0 28 0;
#X connect 25 0 29 0;
#X connect 26 0 30 0;
#X connect 27 0 8 0;
#X connect 28 0 8 0;
#X connect 29 0 8 0;
#X connect 30 0 8 0;
#X connect 31 1 6 0;
#X connect 31 2 13 0;
#X connect 31 3 22 0;
#X connect 31 4 33 0;
#X connect 31 5 13 0;
#X connect 32 0 8 2;
#X connect 33 1 34 0;
#X connect 33 2 35 0;
#X connect 33 3 36 0;
#X connect 33 4 1 0;
#X connect 34 0 37 0;
#X connect 35 0 38 0;
#X connect 36 0 39 0;
#X connect 37 0 8 0;
#X connect 38 0 8 0;
#X connect 39 0 8 0;
#X connect 40 0 31 0;
#X restore 818 354 pd MIDIsom;
#X text 269 614 copyleft Glerm Soares 2013;
#X connect 1 0 0 0;
#X connect 1 0 22 0;
#X connect 2 0 10 0;
#X connect 3 0 5 0;
#X connect 4 0 1 0;
#X connect 5 0 4 0;
#X connect 5 1 1 1;
#X connect 6 0 14 0;
#X connect 8 0 6 0;
#X connect 9 0 6 1;
#X connect 10 0 1 0;
#X connect 12 0 3 0;
#X connect 13 0 3 0;
#X connect 14 0 7 0;
#X connect 14 0 15 0;
#X connect 15 0 12 0;
#X connect 15 1 2 0;
#X connect 15 2 13 0;
#X connect 15 3 2 0;
#X connect 15 4 16 0;
#X connect 15 5 2 0;
#X connect 15 6 17 0;
#X connect 15 7 2 0;
#X connect 15 8 18 0;
#X connect 15 9 2 0;
#X connect 15 10 19 0;
#X connect 15 11 2 0;
#X connect 15 12 20 0;
#X connect 15 13 2 0;
#X connect 15 14 21 0;
#X connect 15 15 2 0;
#X connect 16 0 3 0;
#X connect 17 0 3 0;
#X connect 18 0 3 0;
#X connect 19 0 3 0;
#X connect 20 0 3 0;
#X connect 21 0 3 0;
#X connect 22 0 23 0;
#X connect 23 0 24 0;
#X connect 24 0 26 0;
#X connect 24 0 28 0;
#X connect 24 0 27 0;
#X connect 24 0 30 0;
#X connect 24 0 32 0;
#X connect 24 0 34 0;
#X connect 24 0 35 0;
#X connect 24 0 36 0;
#X connect 26 0 29 0;
#X connect 27 0 29 0;
#X connect 28 0 29 0;
#X connect 30 0 29 0;
#X connect 31 0 25 1;
#X connect 31 0 44 0;
#X connect 32 0 29 0;
#X connect 34 0 29 0;
#X connect 35 0 29 0;
#X connect 36 0 29 0;
#X connect 41 0 42 0;
