#N canvas 14 120 1265 659 10;
#X declare -lib rtc;
#X declare -lib list-abs;
#X obj 202 105 dumpOSC 9000;
#X obj 192 140 OSCroute /golly;
#X obj 202 166 list-group 2;
#X text 282 163 separando em "coordenadas cartesianas";
#X obj 203 220 unpack f f;
#X floatatom 196 241 5 0 0 0 - - -;
#X floatatom 260 240 5 0 0 0 - - -;
#X obj 70 515 makenote 127 100;
#X text 7 -46 Estudo para parser baseado na saida do;
#X obj 203 380 +;
#X obj 224 358 * 12;
#X text 8 -33 script python Golly https://gist.github.com/automata/6206894
;
#N canvas 0 0 450 300 (subpatch) 0;
#X array escala 8 float 3;
#A 0 3 6 9 12 12 9 6 3;
#X coords 0 12 8 0 200 140 1 0 0;
#X restore 308 233 graph;
#X obj 159 318 tabread escala;
#X obj 195 264 % 8;
#X floatatom 180 293 5 0 0 0 - - -;
#X floatatom 168 358 5 0 0 0 - - -;
#X obj 260 266 % 8;
#X floatatom 245 295 5 0 0 0 - - -;
#X obj 40 307 metro;
#X obj 70 265 / 8;
#X floatatom 65 288 5 0 0 0 - - -;
#X msg 64 233 1000;
#X obj 38 278 tgl 15 0 empty empty empty 17 7 0 10 -262144 -1 -1 0
1;
#X obj 41 331 list-dripslow;
#X obj 76 548 noteout 1;
#X obj 173 513 makenote 127 100;
#X obj 179 546 noteout 2;
#X floatatom 62 445 5 0 0 0 - - -;
#X msg 510 234 \; escala 0 2 4 5 7 9 10 12 15;
#X obj 107 422 list-drip;
#X obj 293 456 prepend set;
#X msg 292 483 75 62 64 94 10 22 33 34 36 53 50 65;
#X obj 256 424 list-group 12;
#X obj 103 178 t f b;
#X obj 289 523 prepend set;
#X msg 288 546 10 36 64 75 34 94 65 33 22 53 62 50;
#X obj 12 -11 import rtc;
#X obj 289 503 scramble;
#X obj 11 12 import list-abs;
#X obj 174 442 < 48;
#X obj 112 464 sel 0 1;
#X msg 133 487 1000;
#X msg 97 488 100;
#X msg 510 284 \; escala 0 3 6 9 12 12 9 6 3 0;
#X text 74 568 copyleft Glerm Soares 2013;
#X connect 0 0 1 0;
#X connect 1 0 2 0;
#X connect 2 0 4 0;
#X connect 4 0 5 0;
#X connect 4 1 6 0;
#X connect 5 0 14 0;
#X connect 6 0 17 0;
#X connect 6 0 34 0;
#X connect 7 0 25 0;
#X connect 7 1 25 1;
#X connect 9 0 33 0;
#X connect 10 0 9 1;
#X connect 13 0 16 0;
#X connect 14 0 15 0;
#X connect 15 0 13 0;
#X connect 16 0 9 0;
#X connect 17 0 18 0;
#X connect 18 0 10 0;
#X connect 19 0 24 0;
#X connect 20 0 21 0;
#X connect 21 0 19 1;
#X connect 22 0 20 0;
#X connect 23 0 19 0;
#X connect 24 0 7 0;
#X connect 26 0 27 0;
#X connect 26 1 27 1;
#X connect 28 0 7 0;
#X connect 30 0 7 0;
#X connect 30 0 40 0;
#X connect 31 0 32 0;
#X connect 33 0 30 0;
#X connect 33 0 31 0;
#X connect 33 0 38 0;
#X connect 34 0 20 1;
#X connect 34 1 22 0;
#X connect 35 0 36 0;
#X connect 38 0 24 1;
#X connect 38 0 35 0;
#X connect 40 0 41 0;
#X connect 41 0 43 0;
#X connect 41 1 42 0;
#X connect 42 0 7 2;
#X connect 43 0 7 2;
