#N canvas 1 88 1265 708 10;
#X declare -lib iemmatrix;
#X declare -lib iemmatrix;
#X obj 103 347 mtx_print;
#X msg 80 222 1;
#X obj 10 -11 import iemmatrix;
#X obj 197 349 route matrix;
#X obj 577 346 seq.8x8_;
#X msg 11 468 2 \$2 \$10 \$18 \$26 \$34 \$42 \$50 \$58;
#X msg 12 448 1 \$1 \$9 \$17 \$25 \$33 \$41 \$49 \$57;
#X msg 11 488 3 \$3 \$11 \$19 \$27 \$35 \$43 \$51 \$59;
#X obj 274 594 s gollytrix;
#X msg 13 510 4 \$3 \$12 \$20 \$28 \$36 \$44 \$52 \$60;
#X obj 744 336 r gollytrix;
#X msg 212 448 5 \$5 \$13 \$21 \$29 \$37 \$45 \$53 \$61;
#X text 563 312 Depende de pdmtl abstractions;
#X msg 212 468 6 \$6 \$14 \$22 \$30 \$38 \$46 \$54 \$62;
#X msg 211 489 7 \$7 \$15 \$23 \$31 \$39 \$47 \$55 \$63;
#X msg 214 510 8 \$8 \$16 \$24 \$32 \$40 \$48 \$56 \$64;
#X text 564 328 https://gitorious.org/pdmtl;
#X text 562 295 Objeto sequenciador seq_8x8;
#X text 7 -46 GliderMatrix8x8 estudo para parser baseado na saida do
;
#X text 8 -33 script python https://gist.github.com/automata/6206894
;
#X obj 627 117 dumpOSC 9000;
#X obj 617 152 OSCroute /golly;
#X obj 627 178 list-group 2;
#X obj 103 328 mtx_element;
#X obj 114 305 mtx_zeros 8 8;
#X obj 198 368 route 8;
#X obj 198 388 route 8;
#X obj 107 195 t b l b;
#X obj 542 240 bng 15 250 50 0 empty empty empty 17 7 0 10 -262144
-1 -1;
#X msg 191 249 bang;
#X obj 372 300 delay 500;
#X obj 341 200 list-math + 4;
#X text 284 178 em -4 \, -4... aqui um ajuste;
#X text 265 162 O Golly recorta o grid com canto esquerdo;
#X text 625 196 separando em "coordenadas cartesianas";
#N canvas 712 386 450 300 MIDIsom 0;
#X msg 776 518 60;
#X obj 1143 339 sel 1;
#X msg 1142 361 30;
#X obj 777 498 sel 1;
#X obj 818 496 sel 1;
#X msg 817 516 63;
#X obj 780 421 unpack f f f f f f f f;
#X obj 876 611 noteout;
#X obj 877 587 makenote 127 1000;
#X obj 859 496 sel 1;
#X msg 858 516 66;
#X obj 900 497 sel 1;
#X msg 899 517 69;
#X obj 949 428 unpack f f f f f f f f;
#X obj 946 505 sel 1;
#X obj 987 503 sel 1;
#X obj 1028 503 sel 1;
#X obj 1069 504 sel 1;
#X msg 945 525 72;
#X msg 986 523 75;
#X msg 1027 523 78;
#X msg 1068 524 81;
#X obj 962 290 unpack f f f f f f f f;
#X obj 959 367 sel 1;
#X obj 1000 365 sel 1;
#X obj 1041 365 sel 1;
#X obj 1082 366 sel 1;
#X msg 958 387 48;
#X msg 999 385 51;
#X msg 1040 385 54;
#X msg 1081 386 57;
#X obj 813 312 route 1 2 3 4 5 6;
#X floatatom 996 574 5 0 0 0 - - -;
#X obj 1023 263 unpack f f f f f f f f;
#X obj 1020 340 sel 1;
#X obj 1061 338 sel 1;
#X obj 1102 338 sel 1;
#X msg 1019 360 36;
#X msg 1060 358 24;
#X msg 1101 358 27;
#X obj 813 273 inlet;
#X connect 0 0 8 0;
#X connect 1 0 2 0;
#X connect 2 0 8 0;
#X connect 3 0 0 0;
#X connect 4 0 5 0;
#X connect 5 0 8 0;
#X connect 6 1 3 0;
#X connect 6 2 4 0;
#X connect 6 3 9 0;
#X connect 6 4 11 0;
#X connect 8 0 7 0;
#X connect 8 1 7 1;
#X connect 9 0 10 0;
#X connect 10 0 8 0;
#X connect 11 0 12 0;
#X connect 12 0 8 0;
#X connect 13 1 14 0;
#X connect 13 2 15 0;
#X connect 13 3 16 0;
#X connect 13 4 17 0;
#X connect 14 0 18 0;
#X connect 15 0 19 0;
#X connect 16 0 20 0;
#X connect 17 0 21 0;
#X connect 18 0 8 0;
#X connect 19 0 8 0;
#X connect 20 0 8 0;
#X connect 21 0 8 0;
#X connect 22 1 23 0;
#X connect 22 2 24 0;
#X connect 22 3 25 0;
#X connect 22 4 26 0;
#X connect 23 0 27 0;
#X connect 24 0 28 0;
#X connect 25 0 29 0;
#X connect 26 0 30 0;
#X connect 27 0 8 0;
#X connect 28 0 8 0;
#X connect 29 0 8 0;
#X connect 30 0 8 0;
#X connect 31 1 6 0;
#X connect 31 2 13 0;
#X connect 31 3 22 0;
#X connect 31 4 33 0;
#X connect 31 5 13 0;
#X connect 32 0 8 2;
#X connect 33 1 34 0;
#X connect 33 2 35 0;
#X connect 33 3 36 0;
#X connect 33 4 1 0;
#X connect 34 0 37 0;
#X connect 35 0 38 0;
#X connect 36 0 39 0;
#X connect 37 0 8 0;
#X connect 38 0 8 0;
#X connect 39 0 8 0;
#X connect 40 0 31 0;
#X restore 828 364 pd MIDIsom;
#X text 275 614 copyleft Glerm Soares 2013;
#X connect 1 0 23 0;
#X connect 3 0 25 0;
#X connect 5 0 8 0;
#X connect 6 0 8 0;
#X connect 7 0 8 0;
#X connect 9 0 8 0;
#X connect 10 0 4 1;
#X connect 11 0 8 0;
#X connect 13 0 8 0;
#X connect 14 0 8 0;
#X connect 15 0 8 0;
#X connect 20 0 21 0;
#X connect 21 0 22 0;
#X connect 22 0 28 0;
#X connect 22 0 31 0;
#X connect 23 0 0 0;
#X connect 23 0 3 0;
#X connect 24 0 23 0;
#X connect 25 0 26 0;
#X connect 26 0 5 0;
#X connect 26 0 7 0;
#X connect 26 0 6 0;
#X connect 26 0 9 0;
#X connect 26 0 11 0;
#X connect 26 0 13 0;
#X connect 26 0 14 0;
#X connect 26 0 15 0;
#X connect 27 0 1 0;
#X connect 27 1 23 1;
#X connect 28 0 30 0;
#X connect 29 0 24 0;
#X connect 30 0 29 0;
#X connect 31 0 27 0;
